<?xml version="1.0" standalone="no"?>
<!DOCTYPE svg PUBLIC "-//W3C//DTD SVG 20010904//EN"
 "http://www.w3.org/TR/2001/REC-SVG-20010904/DTD/svg10.dtd">
<svg version="1.0" xmlns="http://www.w3.org/2000/svg"
 width="232.000000pt" height="212.000000pt" viewBox="0 0 232.000000 212.000000"
 preserveAspectRatio="xMidYMid meet">

<g transform="translate(0.000000,212.000000) scale(0.100000,-0.100000)"
fill="#000000" stroke="none">
<path d="M1261 1523 c-5 -27 -20 -101 -32 -166 -20 -105 -25 -120 -46 -128
-17 -6 -23 -16 -23 -39 0 -28 2 -30 38 -30 61 0 72 15 93 126 31 167 23 166
98 14 62 -127 68 -135 97 -138 26 -3 32 1 37 20 3 13 18 89 33 171 23 120 31
147 45 147 18 0 29 19 29 51 0 16 -7 19 -45 19 -54 0 -67 -17 -85 -110 -6 -36
-16 -87 -22 -113 l-10 -48 -66 135 c-64 133 -66 136 -98 136 -31 0 -33 -3 -43
-47z"/>
<path d="M860 1295 c-50 -91 -98 -168 -105 -172 -7 -5 -17 -21 -20 -36 -7 -28
-7 -28 36 -25 41 3 46 6 69 51 l25 48 70 -3 70 -3 5 -35 c9 -51 17 -60 55 -60
29 0 36 4 41 26 4 16 2 29 -5 33 -6 4 -23 75 -37 157 -33 195 -28 184 -74 184
l-38 0 -92 -165z m134 -17 l6 -58 -50 0 c-27 0 -50 2 -50 5 0 3 16 38 36 78
41 80 46 78 58 -25z"/>
<path d="M1648 1430 c-4 -25 -1 -30 15 -30 15 0 18 -5 14 -22 -21 -85 -57
-300 -52 -308 4 -6 58 -10 126 -10 119 0 120 0 129 26 6 14 10 36 10 50 0 20
-5 24 -31 24 -22 0 -32 -5 -36 -20 -5 -17 -14 -20 -59 -20 -59 0 -62 5 -48 79
l7 31 67 0 c68 0 68 0 72 30 l5 30 -65 0 -64 0 7 48 c4 26 10 51 14 55 5 5 28
7 52 5 35 -2 44 -7 43 -20 -1 -14 6 -18 32 -18 27 0 35 5 40 24 3 13 4 35 2
47 -3 24 -5 24 -139 27 l-137 3 -4 -31z"/>
<path d="M497 1313 c-4 -3 -7 -19 -7 -35 0 -19 5 -28 16 -28 12 0 15 -6 11
-22 -3 -13 -17 -83 -32 -156 -21 -105 -24 -136 -15 -148 9 -10 38 -14 116 -14
108 0 134 10 134 50 0 10 3 25 6 34 5 13 -1 16 -30 16 -25 0 -36 -4 -36 -15 0
-12 -13 -15 -56 -15 l-56 0 4 33 c2 17 15 90 28 160 21 111 22 129 10 137 -17
11 -83 13 -93 3z"/>
<path d="M2065 1265 c-44 -16 -71 -46 -81 -88 -9 -44 13 -85 65 -114 65 -37
81 -53 81 -79 0 -45 -71 -58 -127 -25 -30 19 -32 19 -47 2 -23 -26 -20 -39 16
-61 70 -43 151 -35 204 21 23 24 29 39 29 74 0 52 -18 74 -92 114 -36 20 -49
32 -51 53 -6 50 82 67 103 21 15 -35 61 -32 68 5 8 38 -16 69 -60 81 -48 14
-59 13 -108 -4z"/>
<path d="M127 1053 c-14 -14 -7 -63 9 -63 10 0 14 -6 10 -17 -9 -31 -56 -287
-56 -305 0 -14 8 -18 34 -18 33 0 35 2 45 50 6 28 11 60 11 70 0 17 7 20 53
20 97 1 167 52 183 136 9 48 -19 102 -60 119 -36 15 -216 22 -229 8z m201 -75
c20 -20 14 -67 -13 -93 -19 -19 -35 -25 -71 -25 -43 0 -46 2 -41 23 4 12 9 41
13 65 l7 42 46 0 c26 0 52 -5 59 -12z"/>
</g>
</svg>
